<?xml version="1.0" encoding="UTF-8"?>
<svg id="Warstwa_2" data-name="Warstwa 2" xmlns="http://www.w3.org/2000/svg" viewBox="0 0 793.9 793.7">
  <defs>
    <style>
      .cls-1 {
        fill: #fff;
      }
    </style>
  </defs>
  <g id="Warstwa_1-2" data-name="Warstwa 1">
    <g id="OverrLOGO">
      <g>
        <g id="Logo">
          <path class="cls-1" d="M710.52,398.61h0,0M762.7,426.85c-2.48,30.69-8.78,60.8-18.8,89.82-12.66,36.67-31.05,70.99-54.63,102.01-23.35,30.7-51.22,57.44-82.86,79.47-29.6,20.61-61.85,36.64-95.97,47.71-55.99-18.19-107.24-49.98-148.7-92.32-32.71-33.39-58.41-72.07-76.4-114.97-14.96-35.69-24.07-73.16-27.17-111.72h53.63c8.65,89.26,55.63,171.74,129.16,224.63,20.38,14.66,44.4,22.41,69.48,22.41s49.09-7.75,69.47-22.4c73.53-52.88,120.52-135.37,129.17-224.63h53.62M792.12,396.85h-109.83c-.98,0-1.77.79-1.77,1.76-.57,94.13-47.03,177.38-118.13,228.52-15.53,11.17-33.74,16.76-51.95,16.76s-36.43-5.59-51.96-16.76c-71.09-51.14-117.55-134.38-118.12-228.51-.01-.97-.79-1.76-1.77-1.76h-109.83c-.99,0-1.79.8-1.78,1.79.47,107.39,43.61,204.72,113.33,275.89,46.47,47.46,104.77,83.29,170.12,102.74h.01c163.39-48.63,282.67-199.65,283.46-378.64,0-.98-.8-1.78-1.78-1.78h0Z"/>
        </g>
        <path class="cls-1" d="M397.38,30c2.09,0,3.66.01,5.09.04h.1s.1,0,.1,0c1.7.02,3.57.07,5.72.13,67.99,2,133.86,22.76,190.5,60.06,42.45,27.95,78.52,64.29,106.05,106.53h-66.22c-15.68-18.9-33.53-35.91-53.2-50.68-51.99-39.06-113.87-60.7-178.96-62.56-1-.03-2-.05-3.01-.07-1.05-.03-2.15-.05-3.37-.05-1.03-.02-1.96-.02-2.8-.02-.55,0-1.09,0-1.64,0-.45,0-.89,0-1.34,0h-.37c-.87.01-1.75.02-2.62.04-1.03.01-2.06.04-3.07.07-120.94,3.21-230.38,76.98-278.85,187.94-15.15,34.65-23.8,71.47-25.7,109.43-7.7,153.22,99.89,292.1,250.27,323.04l96.23,19.8-68.75-70.18c-32.71-33.39-58.41-72.07-76.4-114.97-14.96-35.69-24.07-73.16-27.17-111.72h53.6c.09.96.18,1.86.27,2.72.09.97.2,1.99.33,3.11.15,1.4.33,2.85.56,4.55.22,1.71.46,3.44.71,5.16.15,1.1.33,2.27.54,3.56v.09c.11.64.21,1.3.32,1.94.05.29.11.68.19,1.13.16,1,.34,2.03.54,3.12.8,4.51,1.7,9,2.69,13.37.29,1.33.6,2.67.94,4.11.71,2.97,1.41,5.71,2.12,8.38.35,1.33.71,2.63,1.06,3.87.54,1.95,1.1,3.85,1.64,5.64.29.96.62,2.04.98,3.17.27.89.56,1.81.91,2.85.26.81.52,1.62.8,2.43l.09.26c.19.57.39,1.15.58,1.73,1.39,4.07,2.75,7.81,4.15,11.43,1.13,2.96,2.22,5.68,3.34,8.32l.04.11.1.23c1.77,4.21,3.64,8.4,5.55,12.45,3.22,6.81,6.72,13.58,10.41,20.11.36.64.72,1.29,1.09,1.92.4.71.81,1.42,1.24,2.14,1.44,2.48,2.96,4.99,4.51,7.47.11.18.23.39.37.6.75,1.21,1.57,2.49,2.57,4.02.98,1.52,1.86,2.87,2.67,4.07.21.31.42.63.64.94.81,1.2,1.55,2.29,2.27,3.33l.02.03c.11.17.23.33.35.5.76,1.09,1.54,2.21,2.4,3.4.26.36.51.72.77,1.07.5.7,1.06,1.47,1.69,2.31.47.65.98,1.33,1.56,2.1.87,1.18,1.74,2.33,2.59,3.41.89,1.17,1.83,2.38,2.87,3.67.87,1.1,2.01,2.52,3.22,3.99,1.04,1.27,1.98,2.4,2.87,3.45h0c.35.41.69.81,1.04,1.21.68.8,1.38,1.62,2.15,2.5,2.06,2.36,3.94,4.45,5.75,6.41.91,1,1.87,2.02,3.09,3.31.93.98,1.91,2.01,3.17,3.3,2.36,2.42,4.79,4.83,7.23,7.16.68.66,1.36,1.31,2.05,1.95.94.9,1.91,1.8,2.95,2.74.75.71,1.44,1.33,1.94,1.78,1.82,1.65,3.69,3.3,5.55,4.9.78.67,1.46,1.26,2.11,1.8.26.23.55.48.88.75.63.53,1.22,1.02,1.8,1.49,2.05,1.71,4.2,3.45,6.4,5.17,1.03.81,2.06,1.61,3.11,2.4,1.4,1.08,2.75,2.09,3.78,2.84,1.18.88,2.39,1.76,3.59,2.62l.06.05.07.05c.89.64,2.07,1.47,3.35,2.32.69.47,1.42.94,2.2,1.42,19.1,12.16,41.16,18.58,63.81,18.58s46.29-6.88,65.87-19.91c.67-.44,1.36-.91,2.1-1.43.45-.31.91-.64,1.37-.96l.07-.05.07-.05c11.62-8.35,22.8-17.63,33.25-27.58.71-.66,1.41-1.34,2.11-2.01l.04-.04.04-.04c.86-.84,1.72-1.68,2.57-2.53,1.28-1.27,2.28-2.27,3.23-3.25.51-.52,1.02-1.04,1.51-1.56.68-.7,1.3-1.34,1.88-1.96,1.97-2.07,3.96-4.22,6.05-6.56,2.08-2.32,3.97-4.49,5.78-6.64,3.5-4.12,6.98-8.46,10.36-12.91.48-.62.94-1.24,1.41-1.86,5.99-8,11.68-16.41,16.9-25.01.36-.58.71-1.15,1.05-1.74.62-1.02,1.18-1.97,1.72-2.9.85-1.45,1.56-2.67,2.2-3.83.49-.85.98-1.71,1.47-2.62.07-.12.13-.24.2-.36.78-1.4,1.49-2.73,2.2-4.06l.21-.4c.91-1.69,1.72-3.26,2.48-4.78.78-1.52,1.42-2.81,2.01-4.02.61-1.22,1.17-2.39,1.66-3.44.64-1.32,1.3-2.74,2.07-4.43.62-1.34,1.26-2.77,2-4.47,1.51-3.44,2.94-6.87,4.26-10.22.35-.88.72-1.82,1.13-2.89,1.39-3.6,2.75-7.32,4.13-11.37.19-.56.39-1.13.57-1.69.48-1.43.96-2.9,1.47-4.51.41-1.29.84-2.65,1.26-4.06.26-.85.5-1.66.73-2.47.25-.84.51-1.71.76-2.6.41-1.43.83-2.95,1.28-4.65.72-2.66,1.41-5.39,2.13-8.39.34-1.43.65-2.78.95-4.13,1.03-4.62,1.91-8.97,2.68-13.31.2-1.09.38-2.12.54-3.12.08-.42.14-.8.19-1.13.11-.65.21-1.3.31-1.94v-.09c.22-1.29.4-2.46.55-3.56.26-1.72.5-3.46.72-5.18.22-1.68.4-3.12.55-4.52.13-1.12.24-2.14.33-3.11.1-.86.19-1.76.27-2.72h53.6c-2.48,30.69-8.78,60.8-18.8,89.82-12.66,36.67-31.05,70.99-54.63,102.01-23.35,30.7-51.22,57.44-82.86,79.47-31.68,22.06-66.39,38.87-103.19,49.97l-1.34.4c-33.86,10.07-69.14,15.18-104.84,15.18-16.98,0-34.25-1.17-51.32-3.48-36.28-4.9-72.74-16.99-108.36-35.92-34.78-18.48-67.13-42.56-96.16-71.6-29.03-29.03-53.12-61.39-71.6-96.16-18.93-35.63-31.01-72.08-35.92-108.36-7.3-54.01-3.16-107.21,12.29-158.11,14.77-48.63,39.11-92.96,72.36-131.76,16.44-19.19,34.91-36.74,54.91-52.16,20.13-15.52,41.92-28.97,64.74-39.98,47.53-22.91,98.56-35.05,151.67-36.1h.03s.03,0,.03,0c1.27-.03,2.55-.05,3.83-.06,1.34,0,2.69-.02,4.03-.02M397.38,0c-1.45,0-2.9.01-4.35.02-1.39.02-2.78.04-4.16.07C155.28,4.69-28.83,211.12,3.75,452.2c22.03,162.95,174.8,315.72,337.75,337.75,18.68,2.52,37.15,3.75,55.34,3.75,39.4,0,77.47-5.74,113.39-16.43h.01c163.39-48.63,282.67-199.65,283.46-378.64,0-.98-.8-1.78-1.78-1.78h-109.83c-.98,0-1.77.79-1.77,1.76-.01,1.55-.03,3.1-.07,4.65-.03,1.51-.08,3.03-.14,4.53,0,.25-.01.49-.03.73-.04,1.25-.1,2.49-.17,3.73-.02.42-.04.84-.07,1.25-.06,1.12-.13,2.24-.21,3.35-.16,2.29-.35,4.58-.57,6.86-.08.94-.17,1.87-.28,2.8-.08.92-.18,1.84-.29,2.76-.15,1.37-.32,2.73-.5,4.09-.2,1.59-.42,3.18-.66,4.77-.14,1.04-.3,2.08-.47,3.12-.1.65-.2,1.31-.31,1.96-.04.26-.08.52-.13.78-.16.99-.33,1.97-.51,2.96-.72,4.07-1.54,8.1-2.44,12.11-.27,1.23-.55,2.45-.84,3.67-.61,2.55-1.25,5.09-1.93,7.61-.37,1.4-.75,2.79-1.15,4.17-.22.79-.45,1.58-.69,2.36-.2.72-.41,1.43-.63,2.14-.38,1.26-.77,2.52-1.17,3.77-.43,1.37-.87,2.73-1.33,4.09-.15.46-.31.93-.47,1.39-1.19,3.49-2.44,6.96-3.77,10.39-.32.84-.65,1.69-.99,2.53-1.23,3.13-2.53,6.24-3.88,9.31-.58,1.33-1.17,2.66-1.78,3.98-.61,1.34-1.23,2.68-1.87,4.01-.5,1.05-1,2.1-1.52,3.14-.6,1.24-1.22,2.47-1.85,3.7-.7,1.4-1.42,2.78-2.16,4.16-.08.15-.16.3-.24.45-.69,1.29-1.38,2.58-2.09,3.85-.01.03-.03.05-.04.07-.43.8-.87,1.59-1.33,2.38-.67,1.2-1.36,2.39-2.06,3.58-.49.85-.99,1.69-1.5,2.53-.31.52-.62,1.03-.94,1.55-4.75,7.82-9.87,15.4-15.34,22.7-.41.55-.82,1.09-1.24,1.64-3.04,4-6.18,7.92-9.43,11.75-1.69,2.01-3.42,3.99-5.17,5.94-1.82,2.03-3.67,4.04-5.55,6.01-.55.59-1.11,1.17-1.68,1.75-.45.48-.92.96-1.39,1.44-.95.98-1.91,1.94-2.88,2.9-.78.78-1.57,1.55-2.36,2.32-.61.59-1.23,1.18-1.85,1.76-9.46,9.02-19.53,17.39-30.16,25.03-.38.27-.76.54-1.14.8-.48.34-.96.67-1.44.98-14.96,9.98-32.17,14.97-49.38,14.97s-33.25-4.66-47.83-13.97c-.5-.31-1-.63-1.5-.97-.88-.58-1.75-1.19-2.62-1.81-1.11-.8-2.22-1.61-3.31-2.42-1.1-.81-2.2-1.63-3.28-2.47-.98-.75-1.95-1.5-2.92-2.26-1.98-1.55-3.94-3.13-5.88-4.75-.56-.45-1.11-.91-1.66-1.38-.17-.13-.33-.28-.5-.43-.69-.57-1.38-1.16-2.06-1.75-1.73-1.49-3.44-3-5.14-4.54-.52-.46-1.04-.93-1.55-1.42-.92-.83-1.84-1.68-2.75-2.55-.63-.59-1.25-1.18-1.87-1.78-2.23-2.13-4.42-4.3-6.57-6.51-.95-.97-1.9-1.95-2.83-2.94-.94-.99-1.87-1.98-2.79-2.99-1.78-1.92-3.53-3.88-5.26-5.86-.65-.74-1.28-1.47-1.91-2.22-.32-.37-.64-.74-.96-1.12-.88-1.04-1.75-2.09-2.61-3.14-.98-1.18-1.94-2.38-2.89-3.58-.88-1.1-1.75-2.21-2.6-3.33-.8-1.02-1.58-2.05-2.34-3.08-.48-.63-.96-1.27-1.42-1.91-.53-.7-1.04-1.41-1.55-2.12-.22-.3-.44-.61-.66-.92-.76-1.05-1.5-2.11-2.24-3.17-.1-.14-.19-.28-.29-.42-.73-1.05-1.45-2.11-2.16-3.17-.15-.21-.29-.42-.43-.63-.83-1.24-1.64-2.48-2.44-3.72-.8-1.23-1.59-2.46-2.36-3.7-.04-.06-.08-.13-.12-.2-1.45-2.32-2.87-4.67-4.25-7.04-.37-.63-.74-1.26-1.1-1.9-.32-.55-.64-1.11-.95-1.67-3.37-5.96-6.53-12.06-9.47-18.28-1.75-3.7-3.42-7.45-5.01-11.24-.02-.05-.04-.1-.06-.15-1.08-2.55-2.11-5.13-3.1-7.72-1.33-3.43-2.58-6.9-3.77-10.39-.16-.46-.32-.93-.47-1.39-.28-.84-.56-1.67-.82-2.51-.28-.83-.55-1.66-.8-2.5-.32-.99-.62-1.98-.92-2.97-.51-1.67-1-3.36-1.47-5.05-.33-1.16-.65-2.33-.96-3.5-.68-2.52-1.32-5.06-1.93-7.61-.29-1.22-.57-2.44-.84-3.67-.91-4.01-1.72-8.04-2.44-12.11-.18-.99-.35-1.97-.51-2.96-.05-.26-.09-.52-.13-.78-.11-.65-.21-1.31-.31-1.96-.17-1.04-.33-2.08-.47-3.12-.24-1.59-.46-3.18-.66-4.77-.18-1.36-.35-2.72-.5-4.09-.11-.92-.21-1.84-.29-2.76-.11-.93-.2-1.86-.28-2.8-.22-2.28-.41-4.57-.57-6.86-.08-1.11-.15-2.23-.21-3.35-.03-.41-.05-.83-.07-1.25-.07-1.24-.13-2.48-.17-3.73-.02-.24-.03-.48-.03-.73-.06-1.5-.11-3.02-.14-4.53-.06-2.14-.07-4.27-.08-6.41h-111.59c-.99,0-1.79.8-1.78,1.79.47,107.39,43.61,204.72,113.33,275.89-133.4-27.45-233.52-149.49-226.35-292.15,1.76-35.03,9.88-68.38,23.23-98.92,42.77-97.92,139.27-167,252.24-169.97.9-.03,1.8-.05,2.71-.06.82-.02,1.64-.03,2.46-.04.99,0,1.99-.01,2.98-.01.82,0,1.64,0,2.45.02.99,0,1.98,0,2.97.04.96.02,1.93.04,2.89.07,60.63,1.74,116.48,22.51,161.8,56.56,21.17,15.9,40.05,34.71,56.03,55.82.42.55,1.07.88,1.76.88h127.22c1.64,0,2.72-1.72,2-3.19C691.81,94.58,561.26,4.65,409.26.19c-2.05-.06-4.1-.11-6.16-.14-1.9-.04-3.81-.05-5.72-.05h0Z"/>
      </g>
    </g>
  </g>
</svg>