<svg xmlns="http://www.w3.org/2000/svg" viewBox="0 0 1200 760" role="img" aria-label="Esports branding thumbnail">
  <rect width="1200" height="760" fill="#020617"/>
  <path d="M0 100 L1200 0 V760 H0 Z" fill="#081426"/>
  <g opacity=".24" stroke="#3b82f6">
    <path d="M0 180H1200M0 360H1200M0 540H1200"/>
    <path d="M180 0V760M360 0V760M540 0V760M720 0V760M900 0V760M1080 0V760"/>
  </g>
  <g transform="translate(120 120)">
    <rect width="300" height="520" rx="26" fill="#0f172a" stroke="#1d4ed8" stroke-width="4"/>
    <rect x="460" y="0" width="500" height="160" rx="24" fill="#0f172a" stroke="#1d4ed8" stroke-width="4"/>
    <rect x="460" y="200" width="220" height="320" rx="24" fill="#0f172a" stroke="#1d4ed8" stroke-width="4"/>
    <rect x="720" y="200" width="240" height="320" rx="24" fill="#0f172a" stroke="#1d4ed8" stroke-width="4"/>
    <path d="M150 88 L245 250 L192 430 H108 L55 250 Z" fill="#1d4ed8"/>
    <path d="M150 128 L205 250 L168 380 H132 L95 250 Z" fill="#bfdbfe"/>
    <text x="500" y="98" fill="#e2e8f0" font-family="monospace" font-size="46" font-weight="700">E-SPORT_IDENTITY</text>
    <rect x="505" y="265" width="125" height="125" rx="18" fill="#1d4ed8"/>
    <rect x="773" y="265" width="135" height="32" rx="16" fill="#60a5fa"/>
    <rect x="773" y="330" width="105" height="32" rx="16" fill="#93c5fd"/>
    <rect x="773" y="395" width="145" height="32" rx="16" fill="#1d4ed8"/>
  </g>
</svg>
